

<svg version="1.1" id="Layer_1" xmlns="http://www.w3.org/2000/svg" xmlns:xlink="http://www.w3.org/1999/xlink" x="0px" y="0px"
	 width="100%" viewBox="0 0 496 496" enable-background="new 0 0 496 496" xml:space="preserve">
<path fill="#4D5D99" opacity="1.000000" stroke="none" 
	d="
M384.031616,220.627304 
	C381.597076,240.250473 378.260101,259.221405 372.321716,277.659241 
	C352.954437,337.791718 314.637177,379.469696 253.912659,399.395935 
	C251.666473,400.133026 249.735580,399.935883 247.625946,399.245087 
	C190.815414,380.642212 153.064056,342.519318 132.774521,286.721497 
	C122.114090,257.404510 117.301598,227.021332 116.526695,195.843399 
	C116.124481,179.660309 116.694946,163.620819 118.538597,147.558868 
	C118.963272,143.858978 120.485435,142.413589 123.706009,141.419312 
	C150.108765,133.268265 176.477554,125.007339 202.859497,116.788879 
	C216.683289,112.482529 230.535141,108.264511 244.326797,103.857925 
	C248.795120,102.430252 253.057205,102.414062 257.527740,103.816765 
	C297.861511,116.472099 338.209595,129.082031 378.586395,141.599091 
	C381.710297,142.567520 383.004333,143.968613 383.444336,147.397491 
	C385.678345,164.808060 385.479889,182.281448 385.268188,199.754578 
	C385.185669,206.566299 384.518677,213.370941 384.031616,220.627304 
M355.493713,246.657654 
	C359.323059,246.656204 363.156494,246.544937 366.980408,246.688370 
	C369.993530,246.801407 371.287750,245.794220 371.857666,242.579712 
	C373.976868,230.627533 375.323273,218.612808 376.099670,206.506348 
	C377.230042,188.879410 377.052368,171.294800 375.155151,153.725281 
	C374.826355,150.680176 373.480499,149.169434 370.461151,148.245590 
	C333.734406,137.007919 297.052917,125.622490 260.349518,114.308319 
	C258.995148,113.890808 257.613098,112.836678 256.097443,113.952980 
	C255.230499,114.920517 255.361267,116.122742 255.360886,117.271896 
	C255.352615,142.080170 255.363373,166.888443 255.341660,191.696701 
	C255.340164,193.411987 255.759735,194.962311 256.473175,196.496857 
	C261.103882,206.456848 265.749664,216.410294 270.291412,226.410858 
	C271.463348,228.991318 273.220581,230.643417 275.805939,231.817673 
	C284.896362,235.946442 293.922546,240.218292 302.937195,244.511307 
	C306.157440,246.044876 309.436798,246.750244 313.038757,246.717026 
	C326.856964,246.589630 340.676941,246.659195 355.493713,246.657654 
M125.303490,183.502808 
	C124.962776,202.161148 126.598083,220.673187 129.387039,239.102768 
	C130.528656,246.646652 130.498367,246.664948 137.986938,246.664246 
	C154.476868,246.662674 170.967590,246.554214 187.456146,246.699783 
	C191.565140,246.736069 195.340607,246.041534 199.026306,244.319534 
	C207.925827,240.161606 216.829575,236.010162 225.793549,231.994308 
	C228.707748,230.688736 230.594879,228.741486 231.906693,225.822525 
	C236.138092,216.407059 240.518433,207.057129 244.958420,197.737717 
	C246.214493,195.101257 246.701492,192.447769 246.694870,189.551941 
	C246.641129,166.066406 246.678360,142.580627 246.637405,119.095024 
	C246.634338,117.337517 247.201889,115.418663 245.873947,113.904694 
	C244.236359,112.933052 242.857681,113.925941 241.496185,114.347176 
	C205.104584,125.606392 168.749146,136.983627 132.312668,148.095200 
	C127.874977,149.448502 126.539818,152.169922 126.425652,156.085495 
	C126.168678,164.897842 124.802849,173.662476 125.303490,183.502808 
M298.915314,259.461700 
	C291.233521,263.074982 283.550110,266.684937 275.871063,270.304077 
	C274.050659,271.162018 272.229095,272.066620 271.319824,274.011200 
	C266.102325,285.169708 260.873322,296.323242 255.760315,307.529572 
	C255.241211,308.667328 255.366104,310.145630 255.364990,311.466034 
	C255.344406,335.782349 255.344009,360.098663 255.367813,384.414948 
	C255.369049,385.687805 254.990829,387.119629 256.255737,388.104919 
	C257.481018,388.749268 258.565887,388.100067 259.613800,387.703339 
	C280.548553,379.778503 299.516113,368.642273 315.891205,353.253265 
	C343.119629,327.664429 358.828369,295.655579 368.122498,260.010376 
	C369.129120,256.149811 367.754913,255.313950 364.283142,255.330719 
	C348.461273,255.407104 332.635315,255.544800 316.818268,255.254852 
	C310.635986,255.141525 304.936615,256.047577 298.915314,259.461700 
M143.095139,288.461823 
	C150.165359,306.344574 159.228424,323.028442 172.123856,337.479950 
	C172.678696,319.238861 172.776779,301.252899 172.605331,283.269531 
	C172.565613,279.105072 174.055222,277.657288 178.116226,277.767395 
	C185.275513,277.961517 192.525574,278.489166 199.589706,277.642670 
	C210.058533,276.388275 217.901749,279.761658 224.209717,288.018372 
	C226.001923,290.364258 227.420670,292.343231 227.396927,295.462311 
	C227.273880,311.623596 227.246765,327.787415 227.416763,343.947906 
	C227.459137,347.976257 226.299637,349.508698 222.055298,349.409485 
	C211.064575,349.152527 200.063416,349.300629 189.066971,349.372314 
	C187.350006,349.383484 185.405121,348.698700 183.394211,350.896790 
	C201.209030,368.485260 221.953888,380.866425 245.259506,388.988953 
	C246.918793,386.953644 246.645844,385.405762 246.647003,383.948975 
	C246.666412,359.622101 246.653412,335.295197 246.687027,310.968353 
	C246.689865,308.914978 246.260544,307.042267 245.393311,305.192261 
	C240.798325,295.390411 236.199402,285.589630 231.720367,275.734650 
	C230.546936,273.152863 228.839493,271.434204 226.257828,270.263702 
	C217.614014,266.344635 209.062164,262.222687 200.415741,258.309540 
	C197.575317,257.024017 194.908340,255.310028 191.517517,255.326706 
	C173.522751,255.415268 155.527054,255.414520 137.532288,255.323563 
	C133.733322,255.304367 133.023453,256.651031 133.974411,260.212708 
	C136.465805,269.544006 139.154053,278.795013 143.095139,288.461823 
M204.310013,281.303711 
	C196.647705,281.313507 188.980820,281.484070 181.324997,281.265991 
	C177.441895,281.155396 176.072754,282.441223 176.104904,286.409485 
	C176.247940,304.064026 176.117828,321.720703 176.120651,339.376587 
	C176.120956,341.246490 175.789200,343.325745 178.375565,344.948273 
	C178.480911,342.859650 178.626373,341.266479 178.631180,339.672943 
	C178.664261,328.679352 178.685196,317.685669 178.673004,306.692047 
	C178.667862,302.046417 180.506699,298.271515 184.103821,293.796417 
	C193.534714,310.928925 186.652924,328.844482 189.963272,346.065125 
	C191.821381,343.700073 191.565643,341.654846 191.571243,339.704681 
	C191.602325,328.882965 191.563507,318.061035 191.592178,307.239319 
	C191.614639,298.766510 191.815887,298.743896 200.265930,298.928619 
	C204.138748,299.013306 205.474548,300.482025 205.395599,304.339722 
	C205.201370,313.829315 205.422485,323.326569 205.359589,332.819946 
	C205.265793,346.979004 205.222336,346.848999 219.249527,346.776031 
	C223.364487,346.754608 224.803207,345.414368 224.744461,341.270111 
	C224.553253,327.780487 224.474365,314.281891 224.779984,300.796478 
	C224.892807,295.817902 223.492111,293.928741 218.337753,294.202026 
	C211.734802,294.552094 211.397919,294.217896 211.767487,287.678497 
	C212.056549,282.563568 210.269760,280.521667 204.310013,281.303711 
M254.924683,259.199677 
	C255.493362,260.122070 255.481064,261.557770 257.154694,261.638214 
	C259.516968,259.486755 258.896393,255.320480 262.014771,253.520660 
	C264.525848,255.723114 264.130096,259.454926 267.743042,261.517822 
	C270.773376,253.964676 273.716187,246.629700 277.005524,238.430908 
	C268.931274,239.523148 271.390503,247.656509 266.674591,250.351410 
	C264.097321,248.115936 265.029144,243.854233 261.975281,241.895340 
	C258.909576,243.872604 259.787567,248.244919 256.497955,250.317856 
	C254.659988,248.222153 254.161072,245.565948 253.150116,243.203461 
	C251.173462,238.584198 251.231415,238.559402 247.276474,239.523438 
	C249.737167,245.905701 252.180618,252.243225 254.924683,259.199677 
M240.452454,256.202515 
	C239.058624,254.170792 239.788330,252.749542 241.344269,251.005585 
	C244.505539,247.462372 244.429276,243.579590 241.611023,240.790405 
	C239.245758,238.449478 230.480255,237.312286 228.418182,239.077148 
	C227.578125,239.796143 227.429245,240.786819 227.423203,241.790131 
	C227.385101,248.104874 227.360977,254.419754 227.361786,260.734589 
	C227.361938,261.926880 227.512680,263.204620 229.028564,263.364929 
	C230.727905,263.544647 231.291840,262.365845 231.539490,260.914459 
	C231.919205,258.689240 231.007675,256.266449 232.595169,254.027985 
	C238.569000,253.982941 236.328323,263.875519 243.102036,263.346161 
	C243.141830,260.455017 241.634323,258.768219 240.452454,256.202515 
M201.265991,345.433167 
	C202.407166,332.522308 201.569824,319.583649 201.800842,306.659851 
	C201.836777,304.648956 201.970871,302.467346 198.993622,302.390106 
	C197.438828,302.349762 195.972260,302.454071 195.390884,304.290070 
	C194.474182,307.185059 196.949203,307.418854 198.532455,308.385590 
	C198.753769,308.520691 198.795654,308.949707 198.908249,309.247925 
	C194.104416,313.966949 194.104416,313.966949 198.960602,318.532349 
	C193.676117,323.477112 193.674683,324.125763 198.936142,329.605682 
	C194.219635,333.699829 194.219635,333.699829 199.153534,339.041107 
	C197.035721,340.537842 193.674622,341.667084 195.467316,345.185394 
	C196.641006,347.488831 198.804367,346.708130 201.265991,345.433167 
M185.674667,327.460999 
	C185.673782,323.799835 185.895828,320.120941 185.606247,316.482758 
	C185.342163,313.165253 187.015228,309.390137 183.168625,306.593842 
	C182.013046,317.516724 182.016342,328.388885 183.201431,339.325714 
	C186.977142,336.182556 185.103134,332.075378 185.674667,327.460999 
M218.605148,290.710175 
	C220.980133,286.991241 217.447342,287.187195 215.682556,285.675201 
	C214.942047,288.507629 214.644104,290.568329 218.605148,290.710175 
z"/>
<path fill="#4D5D99" opacity="1.000000" stroke="none" 
	d="
M272.486389,63.647465 
	C275.106842,64.860527 277.986572,65.010063 278.032562,68.749405 
	C278.073059,72.039909 277.083618,73.682465 273.707306,74.871178 
	C270.734558,75.917793 269.358215,79.276047 271.123230,82.350082 
	C272.856140,85.368233 271.843719,87.259773 269.840118,89.385780 
	C267.730225,91.624557 265.982361,90.650986 263.666840,89.543907 
	C259.954895,87.769188 257.130219,89.695824 255.883850,93.221581 
	C254.963593,95.824791 253.466537,96.367722 251.046936,96.394371 
	C248.431335,96.423157 246.818359,95.816467 245.819702,93.011551 
	C244.414169,89.063759 241.289200,87.843773 237.547363,90.035370 
	C235.389847,91.299034 233.789490,90.960869 232.194763,89.391273 
	C230.481934,87.705414 228.969498,85.975082 230.405411,83.285301 
	C232.735580,78.920364 231.082474,75.905258 226.792648,74.334824 
	C224.072250,73.338928 223.961884,71.331032 224.010529,69.147758 
	C224.056061,67.103516 224.445114,65.432915 226.970795,64.615395 
	C231.207291,63.244099 232.549774,60.064110 230.542435,56.027584 
	C229.347458,53.624653 229.849747,51.973141 231.649643,50.288750 
	C233.364807,48.683624 235.100021,47.593670 237.392410,49.147015 
	C241.421646,51.877274 244.009399,49.480976 246.023727,46.413933 
	C249.390640,41.287483 252.591812,41.418610 255.915115,46.689926 
	C257.772034,49.635292 260.532074,51.708878 264.230713,49.259281 
	C266.459686,47.783051 268.256195,48.137512 270.008698,49.915508 
	C271.747620,51.679745 273.116455,53.567627 271.388062,56.055283 
	C269.491302,58.785259 270.621857,61.090530 272.486389,63.647465 
M260.581848,65.957466 
	C260.081726,65.098152 259.676025,64.164192 259.065765,63.391907 
	C255.675842,59.101852 249.985870,57.907700 245.742615,60.540096 
	C241.241150,63.332684 239.452560,69.323303 241.717819,74.020714 
	C243.874771,78.493538 249.322281,80.839119 253.907379,79.269264 
	C259.260254,77.436531 262.054016,72.308357 260.581848,65.957466 
z"/>
<path fill="#4D5D99" opacity="1.000000" stroke="none" 
	d="
M308.140656,456.849457 
	C306.277405,454.563354 304.634338,452.555939 302.050659,449.399323 
	C302.050659,453.991180 301.858856,457.113251 302.096588,460.202240 
	C302.435242,464.602875 300.230286,465.440521 296.365143,465.435242 
	C292.623016,465.430145 290.867004,464.443726 290.962585,460.393066 
	C291.166901,451.733917 290.986816,443.066193 291.118591,434.404358 
	C291.148773,432.420380 290.275665,429.521271 293.175446,428.943634 
	C295.994110,428.382172 299.144318,427.799164 301.399200,430.817841 
	C304.672485,435.199982 308.080353,439.481598 311.856781,444.355865 
	C313.336304,440.586060 312.778717,437.291992 312.596893,434.191071 
	C312.332336,429.678955 314.164795,428.594025 318.410187,428.529419 
	C323.097504,428.458008 323.449188,430.813812 323.388794,434.422943 
	C323.246674,442.917847 323.388763,451.417206 323.286743,459.913239 
	C323.264740,461.744324 324.207642,464.468567 321.539856,465.004120 
	C318.736572,465.566864 315.503021,466.370056 313.199677,463.493317 
	C311.534393,461.413483 309.970154,459.252777 308.140656,456.849457 
z"/>
<path fill="#4D5D99" opacity="1.000000" stroke="none" 
	d="
M207.300766,455.277893 
	C208.615723,452.446503 210.348053,452.650085 212.409195,453.734100 
	C215.051895,455.123962 217.740921,456.496826 221.247559,455.138275 
	C220.294617,452.333466 217.647873,452.398956 215.701752,451.664825 
	C207.939819,448.736847 205.387299,445.366791 206.447815,439.088257 
	C207.629517,432.092224 212.114502,428.685791 219.984497,428.661804 
	C224.629456,428.647614 228.687164,430.303131 232.430954,432.216339 
	C232.949844,434.329193 231.861053,435.537140 231.363037,436.913055 
	C230.056076,440.523743 228.153290,442.052734 224.296783,439.679596 
	C222.506592,438.578033 220.177170,437.363922 217.705948,439.601288 
	C220.789658,442.822662 225.121765,442.739624 228.503632,444.651337 
	C235.582535,448.652954 236.300339,459.016571 229.584793,463.376007 
	C226.296188,465.510803 222.529221,466.409058 218.629944,466.033539 
	C216.169235,465.796539 213.722656,465.151184 211.335526,464.461273 
	C204.472031,462.477692 204.320572,462.085449 207.300766,455.277893 
z"/>
<path fill="#4D5D99" opacity="1.000000" stroke="none" 
	d="
M188.322449,444.782043 
	C188.352707,446.993439 188.352707,448.804291 188.352707,450.636536 
	C185.087677,451.976318 182.065796,451.069183 179.146957,451.361389 
	C177.732254,451.503052 176.367996,451.751709 176.317612,453.494293 
	C176.266953,455.246277 177.583435,455.678467 179.023773,455.708069 
	C181.853287,455.766235 184.687363,455.852051 187.513687,455.755463 
	C191.250595,455.627777 191.278137,458.077850 191.300354,460.746979 
	C191.321854,463.331421 191.037735,465.396149 187.655853,465.344910 
	C181.329987,465.249023 175.001572,465.272156 168.674713,465.317810 
	C166.136215,465.336121 165.034698,464.118561 165.050690,461.676971 
	C165.116150,451.689423 165.203964,441.701935 165.217422,431.714325 
	C165.220825,429.196136 166.634399,428.669678 168.750275,428.678802 
	C174.910934,428.705353 181.073471,428.753357 187.232040,428.630524 
	C190.646133,428.562408 190.937561,430.650635 190.871552,433.203491 
	C190.803772,435.824493 190.717361,438.360107 187.015121,438.239166 
	C184.686829,438.163086 182.352280,438.200348 180.022797,438.266449 
	C178.397385,438.312592 176.295486,438.070099 176.395294,440.526703 
	C176.493362,442.940765 178.654037,442.316986 180.207611,442.654236 
	C182.900375,443.238770 186.201843,441.039948 188.322449,444.782043 
z"/>
<path fill="#4D5D99" opacity="1.000000" stroke="none" 
	d="
M147.675293,456.048370 
	C151.097504,463.179077 149.824036,465.312683 142.657166,465.325043 
	C137.827988,465.333374 132.995789,465.224213 128.170654,465.364044 
	C125.121460,465.452393 123.544670,464.568665 123.593140,461.172607 
	C123.728577,451.682678 123.715332,442.188995 123.617943,432.698273 
	C123.586578,429.641724 124.896698,428.586212 127.813393,428.640839 
	C133.639679,428.750000 139.471054,428.762604 145.297012,428.647308 
	C148.528229,428.583374 149.205719,430.337097 149.171341,433.059021 
	C149.138077,435.692474 149.231049,438.239899 145.508041,438.217041 
	C142.677963,438.199677 139.846909,438.231750 137.017319,438.290405 
	C135.525787,438.321320 134.357513,438.861847 134.475372,440.627502 
	C134.573517,442.097961 135.653717,442.532684 136.917435,442.571442 
	C138.747482,442.627563 140.585754,442.712219 142.409698,442.603363 
	C145.411987,442.424286 147.107971,443.300690 147.062607,446.744659 
	C147.018555,450.089569 145.863342,451.743805 142.342133,451.380157 
	C140.859406,451.227020 139.347015,451.331207 137.849091,451.363678 
	C136.286102,451.397583 134.633987,451.584015 134.548233,453.577026 
	C134.454285,455.760223 136.241043,455.688782 137.740540,455.729950 
	C140.901794,455.816772 144.064423,455.853149 147.675293,456.048370 
z"/>
<path fill="#4D5D99" opacity="1.000000" stroke="none" 
	d="
M367.874298,445.756927 
	C367.424591,450.643768 363.776947,452.671112 359.565521,455.766571 
	C361.968018,455.766571 363.067841,455.850983 364.150696,455.751343 
	C367.994873,455.397614 368.425842,457.665924 368.381439,460.746979 
	C368.338898,463.701355 367.693268,465.474915 364.209564,465.376373 
	C358.056000,465.202393 351.892334,465.227631 345.736481,465.349426 
	C341.796783,465.427338 341.324738,463.380280 342.067078,460.223938 
	C342.966370,456.400238 345.389160,453.882202 348.600861,451.796173 
	C351.194977,450.111298 354.545502,449.473480 356.444519,446.347137 
	C354.608704,443.327698 352.592712,444.840912 350.737885,446.144440 
	C345.926270,449.526001 345.076447,444.426331 343.376709,442.357727 
	C341.040771,439.514832 344.038025,438.369446 346.096313,437.402191 
	C350.613556,435.279358 355.435699,434.909576 360.257019,435.790771 
	C365.418213,436.734070 367.796265,440.232697 367.874298,445.756927 
z"/>
<path fill="#4D5D99" opacity="1.000000" stroke="none" 
	d="
M259.188141,465.189758 
	C256.463165,464.207062 256.921448,462.170532 256.901764,460.418243 
	C256.836334,454.592346 256.748840,448.762634 256.893097,442.939941 
	C256.976135,439.587677 255.842392,437.869995 252.297684,438.245789 
	C248.757187,438.621155 246.710678,437.696930 246.714081,433.434479 
	C246.717514,429.144531 248.848267,428.564606 252.332092,428.620911 
	C260.459564,428.752319 268.590576,428.662903 276.329956,428.662903 
	C278.044983,430.563416 277.185181,432.321716 277.459991,433.901794 
	C278.049408,437.290649 276.370850,438.577271 273.248383,438.199615 
	C268.585144,437.635559 267.099792,439.663361 267.303253,444.199066 
	C267.607330,450.976471 267.382202,457.777618 267.382202,464.451263 
	C264.588684,465.877441 262.074341,465.160889 259.188141,465.189758 
z"/>
<path fill="#4D5D99" opacity="1.000000" stroke="none" 
	d="
M327.135132,118.831970 
	C326.090942,120.576096 325.053986,121.790802 323.020081,120.839188 
	C320.909790,119.851830 321.486389,118.207527 322.026459,116.583366 
	C322.863586,114.065826 323.695007,111.546394 324.532990,109.029144 
	C325.082581,107.378258 325.014282,105.112282 327.656189,105.337120 
	C330.219086,105.555237 331.466736,107.047302 331.411011,109.669731 
	C331.398346,110.266769 331.774963,110.872078 331.962250,111.442635 
	C332.481079,111.442635 332.897400,111.573929 333.082886,111.422485 
	C335.118500,109.760178 337.163513,107.250366 339.998474,109.086800 
	C343.190491,111.154518 340.321014,113.869286 339.902740,116.224686 
	C339.500702,118.488724 338.622955,120.692307 337.758545,122.843834 
	C336.785339,125.266182 333.948303,125.076912 333.498535,123.663506 
	C332.435089,120.321449 329.022430,120.719887 327.135132,118.831970 
z"/>
<path fill="#4D5D99" opacity="1.000000" stroke="none" 
	d="
M360.971069,129.793091 
	C360.058563,131.777435 358.938660,132.357254 357.222015,131.507095 
	C354.854431,130.334549 356.178833,128.392380 356.206421,126.658859 
	C354.857574,126.356178 353.794250,128.529846 352.717133,127.454475 
	C350.873016,125.613312 350.087006,126.324257 348.368988,127.827660 
	C346.911774,129.102798 344.323853,128.145782 344.808167,125.673637 
	C345.595428,121.655098 347.074249,117.761726 348.410980,113.866936 
	C348.858795,112.562057 350.182037,112.538132 351.390411,112.760658 
	C352.796295,113.019569 353.794220,113.725304 354.192657,115.202446 
	C354.520020,116.415924 353.876740,117.925072 355.494354,119.005341 
	C357.954285,118.307732 359.851471,113.854080 362.972748,116.495636 
	C366.127319,119.165390 362.750305,122.244179 362.356323,125.141953 
	C362.158020,126.600563 361.550079,128.003479 360.971069,129.793091 
z"/>
<path fill="#4D5D99" opacity="1.000000" stroke="none" 
	d="
M202.337723,97.487122 
	C208.719284,92.366806 215.239166,94.873199 216.228622,102.558067 
	C216.473251,104.458115 216.998825,106.045113 218.160507,107.482811 
	C211.829636,111.435768 206.754211,112.112381 203.554947,109.105461 
	C200.083328,105.842537 199.766647,101.943008 202.337723,97.487122 
z"/>
<path fill="#4D5D99" opacity="1.000000" stroke="none" 
	d="
M149.673431,111.267944 
	C151.423752,110.652016 152.844879,110.220833 154.270065,109.803467 
	C159.738434,108.202057 160.681107,108.731773 162.288925,114.304726 
	C162.379959,114.620293 162.383392,114.971642 162.521713,115.261391 
	C163.605789,117.531921 166.243759,119.566750 164.192535,122.404533 
	C161.980591,125.464691 158.196014,125.573212 154.975266,126.700996 
	C153.917892,127.071251 152.680954,126.868042 152.420273,125.869637 
	C151.179367,121.117310 147.462463,116.871094 149.673431,111.267944 
z"/>
<path fill="#4D5D99" opacity="1.000000" stroke="none" 
	d="
M376.889557,120.846649 
	C382.128418,121.998787 384.429199,125.220337 383.803131,129.973251 
	C383.252380,134.154404 380.657379,137.040176 376.146942,137.158783 
	C372.168762,137.263397 369.394409,135.110413 368.574768,131.228821 
	C367.698029,127.076859 369.092590,123.650406 373.149109,121.751160 
	C374.181274,121.267906 375.371460,121.122116 376.889557,120.846649 
M378.607635,127.891144 
	C378.117432,126.071213 377.065277,125.292755 375.338898,126.407448 
	C374.196442,127.145111 373.369324,128.266617 373.535034,129.737595 
	C373.678162,131.008499 374.481659,132.053329 375.766296,131.989120 
	C377.785217,131.888184 378.442444,130.328537 378.607635,127.891144 
z"/>
<path fill="#4D5D99" opacity="1.000000" stroke="none" 
	d="
M145.934433,127.343185 
	C142.952621,131.000900 139.431671,132.480637 135.222855,130.596146 
	C131.167801,128.780502 130.150009,125.132668 130.771515,121.009476 
	C131.349686,117.173996 135.583527,114.263107 139.208878,115.168953 
	C140.426086,115.473076 142.069336,115.663910 142.170212,117.352112 
	C142.276382,119.129059 141.106033,120.094017 139.394562,120.164688 
	C136.936096,120.266212 134.776047,120.806953 135.814835,123.882736 
	C136.827896,126.882339 138.528046,126.634590 141.144806,125.012238 
	C143.063797,123.822495 145.876160,124.060654 148.295517,123.696739 
	C149.471436,123.519859 150.153198,124.166290 150.532135,125.211983 
	C150.871780,126.149284 151.331726,127.162315 150.272568,127.892517 
	C148.772369,128.926758 147.454910,128.179535 145.934433,127.343185 
z"/>
<path fill="#4D5D99" opacity="1.000000" stroke="none" 
	d="
M333.926880,428.748444 
	C339.162415,429.621155 339.983185,433.022919 339.048553,436.947083 
	C338.256958,440.270721 335.652771,441.702515 332.223083,441.235657 
	C328.694763,440.755371 326.958405,438.392761 326.945923,435.094452 
	C326.930237,430.946075 329.298157,428.766632 333.926880,428.748444 
z"/>
<path fill="#4D5D99" opacity="1.000000" stroke="none" 
	d="
M291.206909,92.730103 
	C293.803589,93.536278 296.040527,94.183182 298.237854,94.944305 
	C299.216431,95.283272 300.003601,95.988319 299.833557,97.169647 
	C299.690613,98.162270 299.314667,99.515739 298.252930,99.428207 
	C293.467377,99.033699 293.841919,103.061249 292.742004,105.710800 
	C291.887695,107.768661 291.406952,110.220421 288.410736,109.051102 
	C285.521576,107.923569 287.265625,105.693207 287.681885,103.939354 
	C288.373688,101.024651 290.679077,98.049706 286.615234,95.660019 
	C285.709656,95.127502 286.196411,93.784248 286.782623,92.937660 
	C287.969299,91.223885 289.445282,92.306976 291.206909,92.730103 
z"/>
<path fill="#4D5D99" opacity="1.000000" stroke="none" 
	d="
M182.331604,107.033699 
	C179.719849,104.759964 180.368500,103.177536 183.061707,102.198708 
	C185.559296,101.290985 188.108047,100.520126 190.649963,99.740135 
	C191.823883,99.379921 192.997192,99.383881 193.752914,100.578171 
	C194.327332,101.485924 194.555939,102.863869 193.729889,103.329918 
	C190.454575,105.177841 191.760361,107.621841 192.319336,110.214607 
	C192.770752,112.308464 195.612259,115.220421 191.721054,116.492249 
	C187.547836,117.856262 188.191956,113.576035 187.191437,111.521812 
	C186.174179,109.433250 185.875259,106.891243 182.331604,107.033699 
z"/>
<path fill="#4D5D99" opacity="1.000000" stroke="none" 
	d="
M160.249435,464.395081 
	C153.057785,466.084198 152.220428,465.507874 152.040756,460.206604 
	C151.921722,456.694733 153.025070,455.035919 156.773697,455.024506 
	C160.575027,455.012909 161.189148,457.144836 160.990479,460.140106 
	C160.903854,461.446320 160.684982,462.743713 160.249435,464.395081 
z"/>
<path fill="#4D5D99" opacity="1.000000" stroke="none" 
	d="
M307.136841,112.639862 
	C305.794098,114.961990 304.247498,114.404343 302.759247,113.432579 
	C301.554199,112.645714 301.797119,111.455399 302.182312,110.302292 
	C303.285889,106.998657 304.408508,103.701210 305.482727,100.388062 
	C306.018829,98.734604 306.858734,97.815880 308.774902,98.431885 
	C310.574249,99.010345 311.090118,100.088165 310.525513,101.848763 
	C309.411255,105.323441 308.342682,108.812759 307.136841,112.639862 
z"/>
<path fill="#4D5D99" opacity="1.000000" stroke="none" 
	d="
M245.212524,462.844727 
	C243.295853,466.708496 239.831421,465.968811 237.916992,464.624298 
	C235.487305,462.917908 236.272919,459.304138 237.151474,456.763550 
	C238.025436,454.236389 240.873749,454.847748 242.841873,455.326294 
	C247.006378,456.338898 244.734756,459.914703 245.212524,462.844727 
z"/>
<path fill="#4D5D99" opacity="1.000000" stroke="none" 
	d="
M202.334656,460.078674 
	C202.647003,463.724884 201.754166,465.526428 198.007233,465.406555 
	C194.783691,465.303375 193.497803,464.116821 193.662811,460.933350 
	C193.810150,458.090363 193.283081,455.082062 197.644943,454.999878 
	C200.952194,454.937531 202.746857,456.062958 202.334656,460.078674 
z"/>
<path fill="#4D5D99" opacity="1.000000" stroke="none" 
	d="
M297.194580,108.083038 
	C299.238037,106.908806 300.692657,107.247795 300.965302,109.404854 
	C301.135468,110.751305 300.414429,112.146782 298.755402,111.977829 
	C296.488922,111.747025 296.378143,110.159363 297.194580,108.083038 
z"/>
<path fill="#4D5D99" opacity="1.000000" stroke="none" 
	d="
M324.775757,169.292938 
	C325.891205,166.460770 326.942383,164.027527 328.066772,161.628586 
	C328.341614,161.042252 328.804169,160.516235 329.268860,160.050797 
	C334.068970,155.242798 345.895905,158.228699 349.688812,163.722839 
	C354.509521,170.705734 349.812042,176.116989 348.177155,181.839737 
	C346.558319,187.506134 346.463104,190.421829 350.959686,194.498154 
	C357.757751,200.660843 359.363342,210.996552 354.705566,218.611603 
	C349.997589,226.308609 340.103455,229.799423 331.582581,226.332550 
	C328.546661,225.097321 326.037842,224.669678 323.220032,226.520737 
	C321.471710,227.669235 319.351318,227.330215 317.365234,227.333130 
	C306.544159,227.348984 295.723114,227.349365 284.902039,227.335251 
	C275.190369,227.322601 271.520233,221.222687 276.147491,212.461075 
	C278.864899,207.315720 282.019775,202.402496 284.937927,197.361740 
	C287.894775,192.254196 287.987701,186.991776 285.572906,181.667679 
	C283.334808,176.733139 284.969086,173.884628 290.290070,173.723877 
	C293.949677,173.613342 297.617401,173.563919 301.275848,173.674377 
	C306.514923,173.832550 308.394409,177.062729 305.892090,181.660904 
	C305.096008,183.123795 303.917969,184.336411 304.940430,186.352280 
	C307.856476,186.478653 308.645294,184.752853 308.649384,182.339523 
	C308.664062,173.682861 308.628082,165.026047 308.668762,156.369553 
	C308.676453,154.731506 307.784698,153.651016 306.967468,152.374344 
	C304.196075,148.044800 305.827942,144.862411 310.833374,144.705582 
	C314.159668,144.601364 317.494751,144.771347 320.820557,144.659668 
	C324.780304,144.526672 326.485809,147.139145 325.135742,150.026031 
	C321.668762,157.439728 323.700836,165.082092 323.184784,172.596161 
	C322.991364,175.412003 323.120575,178.253922 323.179993,181.082336 
	C323.283630,186.015991 323.682007,186.451370 329.516327,188.054764 
	C329.942993,181.295624 324.930450,176.067230 324.775757,169.292938 
M336.663849,168.426041 
	C334.886658,166.569641 335.730927,163.748672 334.168304,161.055008 
	C330.932404,164.229172 329.070892,167.407318 328.957306,171.766006 
	C331.250061,169.142639 333.823395,168.092377 337.385071,169.578781 
	C339.933014,173.586899 343.534210,175.202011 346.175903,172.907822 
	C351.318420,168.441757 343.744354,166.234848 344.395569,162.447617 
	C344.140930,168.112503 342.850830,169.311508 336.663849,168.426041 
M333.790253,184.280624 
	C333.956451,190.301407 331.893921,194.742737 327.067780,199.032135 
	C320.572449,204.805084 322.234863,216.016083 329.116974,220.953690 
	C335.917053,225.832443 345.504669,224.457291 350.550995,217.879395 
	C355.654083,211.227539 354.203278,201.487534 347.116302,196.235199 
	C344.778900,194.502914 342.794525,193.153854 342.838135,189.656998 
	C342.925781,182.639038 341.883820,182.077499 333.790253,184.280624 
M291.273926,185.962875 
	C292.117493,192.253769 289.945404,197.606964 286.479431,202.734207 
	C283.788147,206.715469 281.398590,210.929810 279.201111,215.208084 
	C276.721313,220.035950 278.682953,223.624588 284.048431,223.809265 
	C291.848602,224.077698 299.671234,224.082626 307.471710,223.822159 
	C313.101746,223.634201 314.999634,219.884827 312.242584,214.902039 
	C309.509521,209.962524 306.737946,205.032043 303.707001,200.273544 
	C301.377075,196.615646 300.298279,192.835739 300.616577,188.506699 
	C300.751007,186.678146 301.490753,183.983215 298.876984,183.408646 
	C296.336029,182.850067 293.224335,181.723526 291.273926,185.962875 
M309.269409,197.662735 
	C312.101227,197.671188 314.941559,197.543350 317.762848,197.720032 
	C322.002258,197.985504 324.551697,195.921417 326.491180,191.929276 
	C323.136597,189.391357 317.247620,188.661606 318.959473,182.531113 
	C320.209290,178.055313 315.712128,174.288177 317.600739,169.784912 
	C316.528656,168.901291 314.228577,169.763901 314.109100,167.632523 
	C313.969116,165.135147 316.730225,166.210831 317.941071,164.750854 
	C316.410034,163.213562 316.651978,161.397522 317.902802,159.827652 
	C316.496338,158.507645 314.077301,158.954956 314.066101,156.624832 
	C314.054993,154.306259 316.819794,155.356812 317.697845,153.789078 
	C313.959229,152.670837 312.293884,153.913269 312.313904,157.725433 
	C312.359344,166.387436 312.205017,175.051376 312.331390,183.711624 
	C312.375763,186.752045 311.434052,188.545532 308.545258,189.898590 
	C303.247467,192.379944 303.333740,194.264984 309.269409,197.662735 
M317.187592,216.840805 
	C317.187592,218.974686 317.187592,221.108566 317.187592,223.205963 
	C319.823547,224.017288 321.714691,223.550522 323.520172,221.072601 
	C319.248505,215.440674 318.587036,208.819870 320.084076,201.679840 
	C316.380310,201.248856 313.205750,200.814087 309.654022,202.103287 
	C312.231812,206.989746 314.622711,211.521957 317.187592,216.840805 
M294.675476,177.317200 
	C292.993347,177.317200 291.311218,177.317200 289.629089,177.317200 
	C289.649963,177.618515 289.670837,177.919830 289.691742,178.221146 
	C293.593994,178.221146 297.496246,178.221146 301.398468,178.221146 
	C301.391937,177.919342 301.385376,177.617538 301.378815,177.315735 
	C299.426514,177.315735 297.474213,177.315735 294.675476,177.317200 
M336.008911,177.292252 
	C334.843445,177.478378 333.481354,176.930542 332.104706,178.430084 
	C336.532532,178.903595 340.448669,179.024704 344.386078,177.288498 
	C341.867615,177.288498 339.349121,177.288498 336.008911,177.292252 
M320.169250,148.734665 
	C316.981750,148.058716 313.814972,148.242020 310.649628,148.988373 
	C313.782623,149.866013 316.931061,149.909531 320.169250,148.734665 
z"/>
<path fill="#4D5D99" opacity="1.000000" stroke="none" 
	d="
M293.144165,145.766571 
	C296.222870,144.297028 299.036072,144.019623 301.404938,146.040649 
	C304.324158,148.531174 305.475525,151.652390 303.172607,155.252243 
	C301.247101,158.262115 296.639618,159.371002 293.483063,157.648911 
	C290.314575,155.920303 289.059265,151.548126 290.872223,148.205826 
	C291.328857,147.363983 292.142883,146.716003 293.144165,145.766571 
M300.175079,151.520782 
	C299.833771,149.397110 298.726257,148.147491 296.443939,148.510834 
	C295.158966,148.715408 294.444214,149.654129 294.256744,150.923981 
	C294.043610,152.367462 294.419037,153.697281 295.819519,154.277206 
	C297.918732,155.146469 299.343750,154.251968 300.175079,151.520782 
z"/>
<path fill="#4D5D99" opacity="1.000000" stroke="none" 
	d="
M301.348145,163.363571 
	C304.707855,163.141571 306.576508,164.488495 306.545074,167.576828 
	C306.519836,170.055695 304.919556,171.625626 302.516571,171.911728 
	C300.209595,172.186417 298.713623,170.750458 298.160004,168.622162 
	C297.514984,166.142609 298.740479,164.477371 301.348145,163.363571 
z"/>
<path fill="#4D5D99" opacity="1.000000" stroke="none" 
	d="
M345.759338,155.481750 
	C342.703857,153.047287 342.343811,150.370453 345.039703,148.151489 
	C347.323273,146.271942 349.825653,146.987015 351.364258,149.606384 
	C353.268463,152.848190 350.738861,155.710907 345.759338,155.481750 
z"/>
<path fill="#4D5D99" opacity="1.000000" stroke="none" 
	d="
M287.555847,166.316406 
	C284.152435,166.690720 282.354065,165.218018 282.097290,162.281937 
	C281.899750,160.022751 283.327911,158.535156 285.486359,157.981674 
	C287.523987,157.459183 289.149872,158.356079 290.050171,160.138962 
	C291.396240,162.804520 290.730255,164.950882 287.555847,166.316406 
z"/>
<path fill="#4D5D99" opacity="1.000000" stroke="none" 
	d="
M327.342896,148.150024 
	C328.372955,145.114532 330.353302,144.338287 332.928864,144.922333 
	C334.748016,145.334869 335.680511,146.758545 335.925201,148.477859 
	C336.179382,150.264069 335.371765,151.922653 333.780823,152.591064 
	C329.891907,154.224960 327.854828,152.426132 327.342896,148.150024 
z"/>
<path fill="#4D5D99" opacity="1.000000" stroke="none" 
	d="
M175.000000,148.840195 
	C190.155777,148.841766 204.811630,148.815369 219.467285,148.859055 
	C226.343567,148.879547 227.287170,149.837143 227.334290,156.627396 
	C227.374741,162.455795 227.373352,168.285568 227.292130,174.113388 
	C227.220108,179.280975 227.644547,183.998337 230.601883,188.790359 
	C235.152832,196.164642 232.354294,206.344879 225.583008,211.107559 
	C218.123108,216.354553 208.698883,215.625931 202.305710,209.301849 
	C201.832565,208.833817 201.368958,208.351288 200.945892,207.838379 
	C199.354752,205.909348 197.213669,203.998047 195.200897,206.372650 
	C193.504852,208.373550 193.442322,211.403458 196.037537,213.433228 
	C198.299683,215.202499 199.972427,217.235962 198.841797,220.233139 
	C197.681122,223.309952 194.914261,223.365356 192.146790,223.343155 
	C185.985107,223.293686 179.822525,223.297592 173.660812,223.345490 
	C171.181808,223.364777 168.821396,223.071060 167.984695,220.350494 
	C167.187897,217.759659 167.599533,215.199127 170.311356,213.928757 
	C173.438522,212.463806 172.886383,209.805206 172.496017,207.481064 
	C172.031982,204.718338 169.389954,205.439240 167.553452,205.411148 
	C160.227341,205.299026 152.897675,205.289749 145.571152,205.384232 
	C141.381607,205.438263 139.541290,203.651474 139.575592,199.382675 
	C139.694626,184.561356 139.748825,169.737610 139.598450,154.917114 
	C139.550674,150.208954 141.797226,148.793457 146.021912,148.827835 
	C155.514008,148.905060 165.007233,148.845078 175.000000,148.840195 
M158.519867,190.959137 
	C170.162201,190.961075 181.805313,190.889465 193.446304,191.015808 
	C196.419174,191.048050 198.303375,190.254425 199.817719,187.470581 
	C202.147781,183.187195 206.199051,180.959198 210.853180,179.548065 
	C213.922104,178.617554 217.076675,179.399399 220.639648,178.640457 
	C220.639648,171.743027 220.720490,164.967163 220.600845,158.194855 
	C220.551224,155.386658 218.280350,155.380692 216.221848,155.379944 
	C194.444336,155.372116 172.666672,155.412033 150.889511,155.323135 
	C147.432251,155.309021 146.125778,156.682770 146.191559,160.063934 
	C146.317734,166.547928 146.172623,173.036713 146.244873,179.522339 
	C146.390808,192.625183 144.511581,190.895035 158.519867,190.959137 
M175.500168,202.668030 
	C181.164963,202.661819 186.833008,202.762695 192.492828,202.591827 
	C194.498535,202.531281 197.737762,203.773407 197.488129,199.740860 
	C197.293579,196.598099 196.688705,194.097733 192.285812,194.204346 
	C180.129822,194.498672 167.962097,194.294754 155.799164,194.334015 
	C154.530365,194.338104 153.106873,193.980240 151.887329,195.332214 
	C152.615295,197.589279 152.719467,199.971542 150.775345,202.669601 
	C159.214005,202.669601 166.857101,202.669601 175.500168,202.668030 
M222.652557,209.323959 
	C223.649704,208.453003 224.726776,207.657410 225.630768,206.698624 
	C230.739700,201.280045 231.064651,193.425186 226.468674,187.640839 
	C222.077164,182.113815 214.376587,180.608398 208.089035,184.047668 
	C201.303009,187.759628 198.610596,195.847198 201.827988,202.855042 
	C205.211502,210.224808 213.312027,212.967194 222.652557,209.323959 
M175.474716,207.933014 
	C175.409164,210.284546 175.069687,212.864288 178.574829,212.933701 
	C181.716461,212.995911 184.862183,212.949051 188.003983,212.868210 
	C189.768890,212.822784 190.737686,211.803207 190.778595,210.031113 
	C190.815811,208.418716 191.283936,205.967957 189.303452,205.812958 
	C184.740906,205.455826 179.888046,203.680130 175.474716,207.933014 
M186.391953,216.303345 
	C182.226624,216.319901 178.060852,216.307144 173.896210,216.369217 
	C172.480865,216.390305 171.084366,216.829788 171.126038,218.547699 
	C171.160065,219.950928 172.449722,220.511093 173.631439,220.517197 
	C180.124817,220.550797 186.619537,220.516144 193.111832,220.397461 
	C194.295273,220.375824 195.488525,219.745255 195.376953,218.262756 
	C195.267685,216.810913 194.057175,216.440475 192.837753,216.384171 
	C191.008377,216.299683 189.173813,216.326996 186.391953,216.303345 
M142.728836,172.497543 
	C143.149246,165.877213 141.754349,159.159073 143.069153,155.250107 
	C143.069153,164.196136 143.069153,175.804398 143.069153,187.412674 
	C142.955399,187.416122 142.841644,187.419556 142.727890,187.423004 
	C142.727890,182.780258 142.727890,178.137527 142.728836,172.497543 
M144.733459,194.873047 
	C141.300217,196.977814 141.408463,199.683121 145.110550,202.072189 
	C145.110550,199.788284 145.110550,197.558640 144.733459,194.873047 
z"/>
<path fill="#4D5D99" opacity="1.000000" stroke="none" 
	d="
M312.553406,327.380249 
	C314.071777,328.815247 315.527985,329.627167 317.267944,329.631348 
	C321.727295,329.642059 322.833771,332.254181 322.775604,336.174927 
	C322.682373,342.454620 321.946198,343.302826 315.555908,343.309509 
	C304.569000,343.321014 293.580688,343.208099 282.595917,343.360596 
	C278.337646,343.419678 276.550629,341.789581 276.624664,337.481232 
	C276.730255,331.334381 277.576843,329.956451 282.398041,329.693237 
	C283.726685,329.620667 285.109314,329.810547 286.377716,329.506653 
	C289.307648,328.804657 290.462280,327.159790 288.230896,324.526886 
	C283.711914,319.194702 277.732941,316.198456 271.156616,314.316956 
	C267.793121,313.354645 264.443298,312.441010 261.345978,310.750458 
	C259.356567,309.664642 258.416077,308.132080 258.777893,305.856995 
	C259.189606,303.268341 261.124268,303.012512 263.222198,302.811066 
	C267.770416,302.374359 272.367371,303.533844 276.876373,301.102966 
	C280.289825,299.262665 281.831177,297.158295 281.803040,293.381592 
	C281.754272,286.829498 283.348175,280.836700 288.682495,276.427704 
	C290.646667,274.804230 292.750641,273.379089 295.472443,274.210602 
	C298.413361,275.109070 299.011322,277.787201 299.008301,280.230377 
	C299.003357,284.242462 301.123138,284.762177 304.420837,284.724121 
	C315.073364,284.601105 325.732422,284.853027 336.380280,284.598633 
	C340.704498,284.495300 341.311798,286.611237 341.284119,290.095764 
	C341.256561,293.561859 341.140564,296.310760 336.399567,296.245178 
	C325.083008,296.088654 313.761780,296.262787 302.442566,296.323486 
	C301.830322,296.326813 301.219025,296.514282 300.609772,297.701050 
	C306.772156,297.701050 312.934967,297.655151 319.096802,297.713531 
	C325.626221,297.775391 332.238281,296.809723 338.362061,300.533875 
	C339.937592,301.492004 340.949890,302.014404 341.202087,303.913849 
	C342.863373,316.426147 342.168304,317.279205 329.859863,317.285889 
	C326.197571,317.287872 322.533478,317.233551 318.873383,317.327972 
	C312.203003,317.500061 310.074066,320.711792 312.553406,327.380249 
M283.822540,308.137482 
	C282.323395,312.269104 283.499054,315.414673 286.919464,318.185577 
	C289.936188,320.629456 293.616516,322.799530 293.473877,327.595062 
	C293.432312,328.992554 294.559662,329.620270 295.859192,329.597870 
	C299.791565,329.530273 303.769104,330.158234 307.838654,329.075195 
	C307.795258,328.254150 307.813477,327.606293 307.719788,326.975067 
	C306.394470,318.045197 309.976562,313.833191 319.061096,313.720490 
	C322.887085,313.673035 326.714172,313.715454 330.540741,313.711060 
	C338.256927,313.702240 339.037109,312.617859 336.747467,304.753387 
	C334.295135,306.306030 331.577057,306.877777 328.769653,306.923584 
	C324.278717,306.996948 319.782104,306.843170 315.294800,306.992584 
	C305.007843,307.335083 294.696655,306.346619 283.822540,308.137482 
M305.478882,339.893524 
	C308.474335,339.877747 311.469788,339.850403 314.465240,339.849854 
	C316.877441,339.849396 318.825623,339.341156 318.713989,336.308685 
	C318.609253,333.462677 316.606537,333.306183 314.499786,333.305725 
	C304.513977,333.303528 294.528168,333.322449 284.542419,333.303406 
	C282.065735,333.298706 280.282684,333.904053 280.366638,336.903717 
	C280.447418,339.789307 282.411926,339.952240 284.513702,339.951263 
	C291.170807,339.948242 297.827881,339.919067 305.478882,339.893524 
M305.779114,292.635620 
	C308.439667,292.644470 311.100250,292.662109 313.760803,292.660492 
	C320.412231,292.656403 327.063690,292.655945 333.715027,292.625671 
	C335.389557,292.618042 337.426056,292.682678 337.385620,290.344391 
	C337.342896,287.874908 335.151947,288.372742 333.585266,288.322510 
	C331.093475,288.242615 328.597351,288.295685 326.103058,288.296265 
	C318.287720,288.298004 310.472351,288.288086 302.657104,288.315948 
	C301.142090,288.321350 299.414429,288.355957 299.488922,290.506622 
	C299.547913,292.209656 300.957977,292.522156 302.370453,292.586182 
	C303.200653,292.623840 304.032776,292.618195 305.779114,292.635620 
M286.620789,296.941803 
	C289.588135,297.681580 293.597412,299.323547 294.497955,295.219788 
	C295.702606,289.730194 295.202637,283.905029 294.599823,278.007294 
	C287.371460,281.076752 284.267120,288.266296 286.620789,296.941803 
M291.666382,301.340698 
	C289.320343,301.340698 286.974304,301.340698 284.628235,301.340698 
	C284.651978,301.661896 284.675690,301.983093 284.699402,302.304291 
	C299.936646,302.304291 315.173889,302.304291 330.411133,302.304291 
	C330.411224,301.981720 330.411346,301.659180 330.411469,301.336609 
	C317.814728,301.336609 305.217957,301.336609 291.666382,301.340698 
M268.052246,306.618713 
	C266.933716,306.906372 265.815186,307.194031 263.555298,307.775177 
	C266.612946,308.844452 268.443268,309.512726 270.293060,310.121887 
	C271.618500,310.558380 273.067596,310.796814 273.397247,308.956635 
	C273.675049,307.405975 272.278595,307.174133 271.154327,306.925598 
	C270.356995,306.749329 269.538147,306.670166 268.052246,306.618713 
z"/>
<path fill="#4D5D99" opacity="1.000000" stroke="none" 
	d="
M190.893356,292.234314 
	C181.177826,292.229706 181.177826,292.229706 178.452316,289.662262 
	C185.254272,287.903351 191.489960,288.675537 198.325607,289.007324 
	C196.669022,293.450714 193.612640,291.755676 190.893356,292.234314 
z"/>
<path fill="#4D5D99" opacity="1.000000" stroke="none" 
	d="
M218.006699,319.338989 
	C215.484192,319.537567 213.366821,320.136108 211.229385,319.482147 
	C210.209137,319.170013 209.399429,318.580597 209.358902,317.453888 
	C209.317230,316.295868 210.121063,315.657043 211.162094,315.432190 
	C213.607712,314.904083 216.079208,314.995483 218.534897,315.361603 
	C219.568466,315.515686 220.441574,316.058685 220.571014,317.200226 
	C220.747772,318.759155 219.600204,319.084717 218.006699,319.338989 
z"/>
<path fill="#4D5D99" opacity="1.000000" stroke="none" 
	d="
M209.789154,323.912598 
	C211.307846,321.439636 218.311035,320.302521 220.008545,321.970917 
	C220.397720,322.353424 220.660614,323.169159 220.546387,323.690063 
	C220.360397,324.538208 219.557526,325.078491 218.682938,325.050232 
	C215.766449,324.955963 212.740372,325.942139 209.789154,323.912598 
z"/>
<path fill="#4D5D99" opacity="1.000000" stroke="none" 
	d="
M220.150757,341.916504 
	C216.213531,343.505310 212.583847,344.106232 208.916504,341.248688 
	C213.044693,338.410858 218.521484,338.777344 220.150757,341.916504 
z"/>
<path fill="#4D5D99" opacity="1.000000" stroke="none" 
	d="
M209.532471,310.732666 
	C212.445694,308.751221 215.523102,309.857300 218.438751,309.467865 
	C219.620499,309.309998 220.775528,309.996887 220.669342,311.524261 
	C220.584991,312.737427 219.568649,313.400208 218.597610,313.186432 
	C215.523972,312.509674 211.594070,315.443451 209.532471,310.732666 
z"/>
<path fill="#4D5D99" opacity="1.000000" stroke="none" 
	d="
M212.483734,303.823853 
	C215.456192,304.226746 218.482803,302.611816 220.848038,305.804413 
	C217.695709,308.180511 214.308823,307.567841 211.027405,307.311523 
	C210.193130,307.246399 209.499283,306.562103 209.551270,305.610229 
	C209.637314,304.034637 210.945023,304.034973 212.483734,303.823853 
z"/>
<path fill="#4D5D99" opacity="1.000000" stroke="none" 
	d="
M210.018219,328.350525 
	C212.935074,327.854065 215.566956,327.565094 218.206345,327.452881 
	C219.452576,327.399933 220.569275,327.939606 220.507828,329.457245 
	C220.456497,330.724640 219.323914,331.291779 218.410202,331.022247 
	C215.531891,330.173279 211.377014,333.839203 210.018219,328.350525 
z"/>
<path fill="#4D5D99" opacity="1.000000" stroke="none" 
	d="
M214.695709,333.624939 
	C216.959106,334.138031 220.396347,332.186798 220.432495,335.166229 
	C220.472565,338.466736 216.860626,337.018158 214.830826,337.144043 
	C212.928116,337.262024 210.403168,338.047577 209.464127,335.071411 
	C210.611465,332.890015 212.645569,333.891968 214.695709,333.624939 
z"/>
<path fill="#4D5D99" opacity="1.000000" stroke="none" 
	d="
M179.958221,287.033813 
	C178.222809,285.272583 178.700684,283.962341 180.657776,283.834137 
	C183.179382,283.668915 185.878876,282.726959 188.224518,284.450989 
	C188.536880,284.680573 188.589127,285.898865 188.289780,286.222137 
	C186.449539,288.209412 183.992035,287.030396 181.801544,287.282257 
	C181.323517,287.337250 180.824173,287.206818 179.958221,287.033813 
z"/>
<path fill="#4D5D99" opacity="1.000000" stroke="none" 
	d="
M231.707382,244.693054 
	C233.612701,241.420258 236.005920,242.450119 238.099518,243.707825 
	C239.503159,244.551056 239.553970,246.264145 238.765732,247.700424 
	C237.680679,249.677521 235.718094,249.370087 233.930756,249.217087 
	C231.207291,248.983978 231.774414,246.830002 231.707382,244.693054 
z"/>
<path fill="#4D5D99" opacity="1.000000" stroke="none" 
	d="
M336.168457,205.679031 
	C345.961334,205.629089 345.961334,205.629089 349.694092,203.178955 
	C353.248932,207.073013 352.741699,213.827881 348.570068,218.147736 
	C343.629944,223.263412 335.045776,223.838470 329.539185,219.422638 
	C324.426147,215.322388 323.163361,208.368607 326.778168,202.906616 
	C329.390625,204.890533 332.274933,206.280594 336.168457,205.679031 
M329.173370,212.874695 
	C331.030090,216.008606 333.510071,218.218750 337.669891,218.665421 
	C337.867493,216.061523 337.789825,213.570786 339.940552,211.787369 
	C342.694519,209.503754 344.708832,212.677399 347.026123,212.839890 
	C347.895935,211.147156 347.931854,209.658096 346.120911,209.535385 
	C343.303131,209.344482 340.363068,208.397430 338.109009,211.734970 
	C335.472931,215.638168 332.983307,215.292953 330.013062,211.297577 
	C329.674164,210.841690 329.476471,209.926437 328.634766,210.937378 
	C328.728943,211.384537 328.829559,211.862137 329.173370,212.874695 
z"/>
<path fill="#4D5D99" opacity="1.000000" stroke="none" 
	d="
M305.760345,222.352234 
	C298.320648,222.350082 291.352783,222.422134 284.387634,222.315506 
	C279.761963,222.244690 278.258636,220.042038 280.332977,215.938919 
	C282.683136,211.290268 285.538513,206.897049 288.201324,202.346451 
	C295.128326,207.492538 298.804901,206.121765 303.018677,202.462723 
	C306.567657,207.432083 310.237061,212.373978 311.859924,218.159698 
	C312.939819,222.009537 309.194458,222.334320 305.760345,222.352234 
M306.277924,214.983963 
	C305.503418,213.712128 304.887177,212.302505 303.923279,211.195602 
	C301.518768,208.434219 298.407135,208.222260 296.368317,211.050964 
	C293.532654,214.985229 290.739838,215.092239 287.202850,212.075043 
	C285.898651,214.305786 284.181152,215.878464 284.139801,218.597839 
	C287.971161,218.668488 292.558228,220.488571 294.780365,217.630798 
	C298.544312,212.790131 301.045288,212.106903 304.301331,217.556778 
	C304.893127,218.547333 305.854156,218.950012 306.793121,218.229279 
	C307.872894,217.400528 306.938385,216.447952 306.277924,214.983963 
z"/>
<path fill="#4D5D99" opacity="1.000000" stroke="none" 
	d="
M171.030609,176.973373 
	C168.777130,179.274902 164.749176,178.306320 162.845886,181.747940 
	C162.215744,182.887405 158.842621,182.782669 157.968582,181.094162 
	C156.097931,177.480377 147.595978,179.367493 150.539490,172.112213 
	C151.128845,170.659592 150.806107,169.679276 150.290787,168.398590 
	C149.217728,165.731842 150.942398,162.771133 152.782059,162.822769 
	C156.915680,162.938766 159.458282,154.436478 164.395538,160.765503 
	C164.697617,161.152710 164.912048,161.896164 165.235352,161.937180 
	C175.714172,163.266953 170.001160,171.224777 171.083344,176.677734 
	C171.000854,177.005493 171.030609,176.973373 171.030609,176.973373 
M164.117935,175.360657 
	C169.470901,173.892776 165.482132,169.607956 167.084671,166.913742 
	C164.511948,166.046082 162.768311,164.564713 160.839127,162.917206 
	C159.005142,164.841125 156.984009,166.414352 154.139847,166.761093 
	C155.401276,169.312210 155.142746,171.610474 154.854050,174.275909 
	C157.880936,174.257050 159.800629,179.264420 164.117935,175.360657 
z"/>
<path fill="#4D5D99" opacity="1.000000" stroke="none" 
	d="
M170.987732,177.023056 
	C171.844635,176.296967 172.866074,175.671783 173.557236,174.788223 
	C175.969894,171.704041 181.585785,170.740646 184.765076,172.973480 
	C188.160751,175.358231 188.337738,181.048187 186.571014,184.731567 
	C183.774734,190.561432 178.701904,188.947357 175.262390,187.824509 
	C171.555466,186.614349 171.016769,181.767105 170.965179,177.371384 
	C171.030609,176.973373 171.000854,177.005493 170.987732,177.023056 
z"/>
<path fill="#4D5D99" opacity="1.000000" stroke="none" 
	d="
M218.564377,207.152344 
	C215.623535,208.669403 212.946655,209.466537 211.107407,206.118958 
	C210.398788,204.829239 209.253830,205.211792 208.187042,204.917892 
	C205.147186,204.080368 203.495987,202.103104 204.620071,198.710541 
	C204.670410,198.558578 204.909012,198.383835 204.873001,198.300537 
	C201.945175,191.526932 206.749283,189.147949 211.433701,186.670059 
	C211.842133,186.453995 212.032196,185.803223 212.442810,185.616928 
	C214.405563,184.726410 217.050507,184.559494 217.951950,186.221466 
	C219.886093,189.787354 227.802750,188.361542 225.378510,195.222244 
	C225.040787,196.178024 224.624649,196.928207 225.077988,198.004944 
	C226.896744,202.324814 225.396515,204.594574 220.711380,204.812119 
	C219.483734,204.869141 219.241669,205.989365 218.564377,207.152344 
M209.244507,196.029510 
	C207.681671,201.158829 212.929977,201.315002 214.926956,204.053833 
	C216.981812,202.491653 218.881180,200.894592 221.811646,200.485458 
	C220.246674,197.822784 220.762100,195.326706 221.921371,192.630280 
	C218.457977,193.573746 217.209442,190.403564 214.867691,189.944611 
	C209.392273,193.825302 209.392273,193.825302 209.244507,196.029510 
z"/>
<path fill="#4D5D99" opacity="1.000000" stroke="none" 
	d="
M165.175842,170.116119 
	C165.013489,173.225220 163.492523,174.778961 160.854477,174.965820 
	C159.057907,175.093109 157.684540,173.993500 157.023544,172.361740 
	C156.131470,170.159561 156.374008,167.961212 158.639297,166.796051 
	C161.824890,165.157516 163.967941,166.523087 165.175842,170.116119 
z"/>
<path fill="#4D5D99" opacity="1.000000" stroke="none" 
	d="
M210.797882,196.257080 
	C213.398758,191.987411 216.526627,191.356720 218.516617,194.336594 
	C219.522156,195.842300 219.650299,197.528336 218.749237,199.062622 
	C217.857178,200.581589 216.385101,201.494934 214.549591,201.162262 
	C212.115341,200.721054 210.777191,199.205399 210.797882,196.257080 
z"/>
</svg>