<svg width="32" height="32" viewBox="0 0 32 32" fill="none" xmlns="http://www.w3.org/2000/svg">
<path d="M15.9998 2.66669C8.77184 2.66669 2.6665 8.77202 2.6665 16C2.6665 23.228 8.77184 29.3334 15.9998 29.3334C23.2278 29.3334 29.3332 23.228 29.3332 16C29.3332 8.77202 23.2278 2.66669 15.9998 2.66669ZM15.9998 9.33335C18.3025 9.33335 19.9998 11.0294 19.9998 13.3334C19.9998 15.6374 18.3025 17.3334 15.9998 17.3334C13.6985 17.3334 11.9998 15.6374 11.9998 13.3334C11.9998 11.0294 13.6985 9.33335 15.9998 9.33335ZM9.19184 22.3627C10.3878 20.6027 12.3825 19.4294 14.6665 19.4294H17.3332C19.6185 19.4294 21.6118 20.6027 22.8078 22.3627C21.1038 24.1867 18.6865 25.3334 15.9998 25.3334C13.3132 25.3334 10.8958 24.1867 9.19184 22.3627Z" fill="#434343"/>
</svg>
